<svg xmlns="http://www.w3.org/2000/svg" xmlns:xlink="http://www.w3.org/1999/xlink" xmlns:lucid="lucid" width="1640.35" height="1134.13"><g transform="translate(-115.25807086614168 -80)" lucid:page-tab-id="0_0"><path d="M0 0h1870.87v1322.84H0z" fill="#21252c"/><path d="M1255.26 506a6 6 0 0 1 6-6h168a6 6 0 0 1 6 6v188a6 6 0 0 1-6 6h-168a6 6 0 0 1-6-6z" stroke="#a9a9a9" stroke-width="2" fill="#f5fbff"/><use xlink:href="#a" transform="matrix(1,0,0,1,1260.2580708661417,505) translate(58.51851851851852 100.90277777777777)"/><path d="M135.26 546a6 6 0 0 1 6-6h88a6 6 0 0 1 6 6v108a6 6 0 0 1-6 6h-88a6 6 0 0 1-6-6z" stroke="#a9a9a9" stroke-width="2" fill="#f5fbff"/><use xlink:href="#b" transform="matrix(1,0,0,1,140.25807086614168,545) translate(23.425925925925927 59.40277777777778)"/><path d="M355.26 526a6 6 0 0 1 6-6h808a6 6 0 0 1 6 6v48a6 6 0 0 1-6 6h-808a6 6 0 0 1-6-6z" stroke="#a9a9a9" stroke-width="2" fill="#f5fbff"/><use xlink:href="#c" transform="matrix(1,0,0,1,360.25807086614174,525) translate(114.59274088541662 13.209309895833334)"/><use xlink:href="#d" transform="matrix(1,0,0,1,360.25807086614174,525) translate(162.20048828124996 13.209309895833334)"/><use xlink:href="#e" transform="matrix(1,0,0,1,360.25807086614174,525) translate(190.76513671874994 13.209309895833334)"/><use xlink:href="#f" transform="matrix(1,0,0,1,360.25807086614174,525) translate(238.3728841145833 13.209309895833334)"/><use xlink:href="#g" transform="matrix(1,0,0,1,360.25807086614174,525) translate(266.9375325520833 13.209309895833334)"/><use xlink:href="#h" transform="matrix(1,0,0,1,360.25807086614174,525) translate(409.7607747395833 13.209309895833334)"/><use xlink:href="#i" transform="matrix(1,0,0,1,360.25807086614174,525) translate(581.1486653645834 13.209309895833334)"/><use xlink:href="#j" transform="matrix(1,0,0,1,360.25807086614174,525) translate(609.7133138020833 13.209309895833334)"/><use xlink:href="#k" transform="matrix(1,0,0,1,360.25807086614174,525) translate(57.46344401041665 34.92784288194445)"/><use xlink:href="#l" transform="matrix(1,0,0,1,360.25807086614174,525) translate(495.4547200520832 34.92784288194445)"/><use xlink:href="#m" transform="matrix(1,0,0,1,360.25807086614174,525) translate(405 60.5037326388889)"/><use xlink:href="#n" transform="matrix(1,0,0,1,360.25807086614174,525) translate(405 91.43706597222223)"/><path d="M237.76 600h995.88" stroke="#bdf139" stroke-width="3" fill="none"/><path d="M237.8 601.5h-1.54v-3h1.54z" stroke="#bdf139" stroke-width=".05" fill="#bdf139"/><path d="M1249.4 600l-14.26 4.63v-9.26z" stroke="#bdf139" stroke-width="3" fill="#bdf139"/><path d="M1255.26 106a6 6 0 0 1 6-6h168a6 6 0 0 1 6 6v188a6 6 0 0 1-6 6h-168a6 6 0 0 1-6-6z" stroke="#a9a9a9" stroke-width="2" fill="#f5fbff"/><use xlink:href="#o" transform="matrix(1,0,0,1,1260.2580708661417,105) translate(52.99382716049383 100.90277777777777)"/><path d="M1345.26 497.5V321.62" stroke="#bdf139" stroke-width="3" fill="none"/><path d="M1346.76 499h-3v-1.54h3z" stroke="#bdf139" stroke-width=".05" fill="#bdf139"/><path d="M1345.26 305.85l4.63 14.27h-9.28z" stroke="#bdf139" stroke-width="3" fill="#bdf139"/><path d="M395.26 666a6 6 0 0 1 6-6h188a6 6 0 0 1 6 6v48a6 6 0 0 1-6 6h-188a6 6 0 0 1-6-6z" stroke="#a9a9a9" stroke-width="2" fill="#f5fbff"/><use xlink:href="#p" transform="matrix(1,0,0,1,400.25807086614174,665) translate(18.82760416666666 28.834309895833336)"/><use xlink:href="#q" transform="matrix(1,0,0,1,400.25807086614174,665) translate(133.08619791666666 28.834309895833336)"/><path d="M1252.76 600h-501.5a6 6 0 0 0-6 6v25.88a6 6 0 0 1-6 6H256.88" stroke="#bdf139" stroke-width="3" fill="none"/><path d="M1254.26 601.5h-1.54v-3h1.54z" stroke="#bdf139" stroke-width=".05" fill="#bdf139"/><path d="M241.1 637.88l14.28-4.64v9.27z" stroke="#bdf139" stroke-width="3" fill="#bdf139"/><path d="M1015.26 186a6 6 0 0 1 6-6h208a6 6 0 0 1 6 6v28a6 6 0 0 1-6 6h-208a6 6 0 0 1-6-6z" stroke="#a9a9a9" stroke-width="2" fill="#f5fbff"/><use xlink:href="#r" transform="matrix(1,0,0,1,1020.2580708661417,185) translate(89.5679012345679 19.65277777777778)"/><path d="M355.26 466a6 6 0 0 1 6-6h48a6 6 0 0 1 6 6v48a6 6 0 0 1-6 6h-48a6 6 0 0 1-6-6z" stroke="#a9a9a9" stroke-width="2" fill="#f5fbff"/><use xlink:href="#s" transform="matrix(1,0,0,1,360.25807086614174,465) translate(5.956901041666665 28.834309895833336)"/><path d="M395.26 726a6 6 0 0 1 6-6h88a6 6 0 0 1 6 6v48a6 6 0 0 1-6 6h-88a6 6 0 0 1-6-6z" stroke="#a9a9a9" stroke-width="2" fill="#f5fbff"/><use xlink:href="#t" transform="matrix(1,0,0,1,400.2580708661417,725) translate(7.41380208333333 28.834309895833336)"/><path d="M1655.43 705.67c-38.96 0-80.17-10.78-80.17-30.65V524.98c0-19.87 41.2-30.65 80.17-30.65 38.8 0 80.18 10.78 80.18 30.65v150.04c0 19.87-41.36 30.65-80.17 30.65zm0-202.25c-44.1 0-71.2 12.47-71.2 21.56v150.04c0 8.88 26.95 21.56 71.2 21.56 44.26 0 71.2-12.47 71.2-21.56V524.98c0-9.1-27.1-21.56-71.2-21.56z" stroke="#fff" stroke-opacity="0" fill="#f5fbff"/><path d="M1655.43 551.2c-38.96 0-80.17-10.74-80.17-30.7h8.98c0 9 26.94 21.72 71.2 21.72 44.25 0 71.2-12.63 71.2-21.72h8.97c0 19.96-41.36 30.7-80.17 30.7z" stroke="#fff" stroke-opacity="0" fill="#f5fbff"/><path d="M1437.76 600h116.88" stroke="#bdf139" stroke-width="3" fill="none"/><path d="M1437.8 601.5h-1.54v-3h1.54z" stroke="#bdf139" stroke-width=".05" fill="#bdf139"/><path d="M1570.4 600l-14.26 4.63v-9.26z" stroke="#bdf139" stroke-width="3" fill="#bdf139"/><path d="M1615.43 586a6 6 0 0 1 6-6h68a6 6 0 0 1 6 6v68a6 6 0 0 1-6 6h-68a6 6 0 0 1-6-6z" stroke="#a9a9a9" stroke-width="2" fill="#f5fbff"/><use xlink:href="#u" transform="matrix(1,0,0,1,1620.4330708661416,585) translate(28.82716049382716 26.52777777777778)"/><use xlink:href="#v" transform="matrix(1,0,0,1,1620.4330708661416,585) translate(28.82716049382716 53.19444444444445)"/><path d="M655.26 960.13a6 6 0 0 1 6-6h88a6 6 0 0 1 6 6v108a6 6 0 0 1-6 6h-88a6 6 0 0 1-6-6z" stroke="#a9a9a9" stroke-width="2" fill="#f5fbff"/><use xlink:href="#b" transform="matrix(1,0,0,1,660.2580708661417,959.1259331597222) translate(23.425925925925927 59.40277777777778)"/><path d="M855.26 966a6 6 0 0 1 6-6h368a6 6 0 0 1 6 6v22.13a6 6 0 0 1-6 6h-368a6 6 0 0 1-6-6z" stroke="#a9a9a9" stroke-width="2" fill="#f5fbff"/><use xlink:href="#c" transform="matrix(1,0,0,1,860.2580708661418,965) translate(18.372884114583286 13.209309895833334)"/><use xlink:href="#w" transform="matrix(1,0,0,1,860.2580708661418,965) translate(65.98063151041663 13.209309895833334)"/><use xlink:href="#m" transform="matrix(1,0,0,1,860.2580708661418,965) translate(185 38.785199652777784)"/><use xlink:href="#n" transform="matrix(1,0,0,1,860.2580708661418,965) translate(185 69.71853298611111)"/><path d="M915.26 1080.13a6 6 0 0 1 6-6h188a6 6 0 0 1 6 6v48a6 6 0 0 1-6 6h-188a6 6 0 0 1-6-6z" stroke="#a9a9a9" stroke-width="2" fill="#f5fbff"/><use xlink:href="#x" transform="matrix(1,0,0,1,920.2580708661417,1079.125933159722) translate(14.066829427083306 28.834309895833336)"/><path d="M855.26 906a6 6 0 0 1 6-6h48a6 6 0 0 1 6 6v48a6 6 0 0 1-6 6h-48a6 6 0 0 1-6-6z" stroke="#a9a9a9" stroke-width="2" fill="#f5fbff"/><use xlink:href="#y" transform="matrix(1,0,0,1,860.2580708661417,904.9999999999999) translate(10.717675781249998 28.834309895833336)"/><path d="M915.26 1140.13a6 6 0 0 1 6-6h88a6 6 0 0 1 6 6v48a6 6 0 0 1-6 6h-88a6 6 0 0 1-6-6z" stroke="#a9a9a9" stroke-width="2" fill="#f5fbff"/><use xlink:href="#t" transform="matrix(1,0,0,1,920.2580708661417,1139.125933159722) translate(7.41380208333333 28.834309895833336)"/><path d="M757.76 1014.13h581.5a6 6 0 0 0 6-6v-286.5" stroke="#bdf139" stroke-width="3" fill="none"/><path d="M757.8 1015.63h-1.54v-3h1.54z" stroke="#bdf139" stroke-width=".05" fill="#bdf139"/><path d="M1345.26 705.85l4.63 14.27h-9.28z" stroke="#bdf139" stroke-width="3" fill="#bdf139"/><path d="M1345.26 702.5V1046a6 6 0 0 1-6 6H776.88" stroke="#bdf139" stroke-width="3" fill="none"/><path d="M1346.76 702.54h-3V701h3z" stroke="#bdf139" stroke-width=".05" fill="#bdf139"/><path d="M761.1 1052l14.28-4.64v9.27z" stroke="#bdf139" stroke-width="3" fill="#bdf139"/><path d="M1295.26 366a6 6 0 0 1 6-6h88a6 6 0 0 1 6 6v88a6 6 0 0 1-6 6h-88a6 6 0 0 1-6-6z" stroke="#a9a9a9" stroke-width="2" fill="#f5fbff"/><g><use xlink:href="#z" transform="matrix(1,0,0,1,1300.2580708661417,365) translate(16.666666666666664 48.71527777777778)"/></g><path d="M1180 396a6 6 0 0 1 6-6h88a6 6 0 0 1 6 6v28a6 6 0 0 1-6 6h-88a6 6 0 0 1-6-6z" stroke="#a9a9a9" stroke-width="2" fill="#f5fbff"/><g><use xlink:href="#A" transform="matrix(1,0,0,1,1185,395) translate(29.567901234567902 19.65277777777778)"/></g><path d="M1605.43 726a6 6 0 0 1 6-6h88a6 6 0 0 1 6 6v48a6 6 0 0 1-6 6h-88a6 6 0 0 1-6-6z" stroke="#a9a9a9" stroke-width="2" fill="#f5fbff"/><g><use xlink:href="#B" transform="matrix(1,0,0,1,1610.4330708661416,725) translate(29.598765432098766 30.52777777777778)"/></g><path d="M1437.76 200h211.67a6 6 0 0 1 6 6v267.7" stroke="#bdf139" stroke-width="3" fill="none"/><path d="M1437.8 201.5h-1.54v-3h1.54z" stroke="#bdf139" stroke-width=".05" fill="#bdf139"/><path d="M1655.43 489.48l-4.63-14.27h9.27z" stroke="#bdf139" stroke-width="3" fill="#bdf139"/><defs><path fill="#5f6572" d="M63-220v92h138v28H63V0H30v-248h175v28H63" id="C"/><path fill="#5f6572" d="M24 0v-261h32V0H24" id="D"/><path fill="#5f6572" d="M141-36C126-15 110 5 73 4 37 3 15-17 15-53c-1-64 63-63 125-63 3-35-9-54-41-54-24 1-41 7-42 31l-33-3c5-37 33-52 76-52 45 0 72 20 72 64v82c-1 20 7 32 28 27v20c-31 9-61-2-59-35zM48-53c0 20 12 33 32 33 41-3 63-29 60-74-43 2-92-5-92 41" id="E"/><path fill="#5f6572" d="M135-143c-3-34-86-38-87 0 15 53 115 12 119 90S17 21 10-45l28-5c4 36 97 45 98 0-10-56-113-15-118-90-4-57 82-63 122-42 12 7 21 19 24 35" id="F"/><path fill="#5f6572" d="M143 0L79-87 56-68V0H24v-261h32v163l83-92h37l-77 82L181 0h-38" id="G"/><g id="a"><use transform="matrix(0.06172839506172839,0,0,0.06172839506172839,0,0)" xlink:href="#C"/><use transform="matrix(0.06172839506172839,0,0,0.06172839506172839,13.518518518518517,0)" xlink:href="#D"/><use transform="matrix(0.06172839506172839,0,0,0.06172839506172839,18.39506172839506,0)" xlink:href="#E"/><use transform="matrix(0.06172839506172839,0,0,0.06172839506172839,30.74074074074074,0)" xlink:href="#F"/><use transform="matrix(0.06172839506172839,0,0,0.06172839506172839,41.85185185185185,0)" xlink:href="#G"/></g><path fill="#5f6572" d="M84 4C-5 8 30-112 23-190h32v120c0 31 7 50 39 49 72-2 45-101 50-169h31l1 190h-30c-1-10 1-25-2-33-11 22-28 36-60 37" id="H"/><path fill="#5f6572" d="M100-194c63 0 86 42 84 106H49c0 40 14 67 53 68 26 1 43-12 49-29l28 8c-11 28-37 45-77 45C44 4 14-33 15-96c1-61 26-98 85-98zm52 81c6-60-76-77-97-28-3 7-6 17-6 28h103" id="I"/><path fill="#5f6572" d="M114-163C36-179 61-72 57 0H25l-1-190h30c1 12-1 29 2 39 6-27 23-49 58-41v29" id="J"/><g id="b"><use transform="matrix(0.06172839506172839,0,0,0.06172839506172839,0,0)" xlink:href="#H"/><use transform="matrix(0.06172839506172839,0,0,0.06172839506172839,12.345679012345679,0)" xlink:href="#F"/><use transform="matrix(0.06172839506172839,0,0,0.06172839506172839,23.45679012345679,0)" xlink:href="#I"/><use transform="matrix(0.06172839506172839,0,0,0.06172839506172839,35.80246913580247,0)" xlink:href="#J"/></g><path fill="#5f6572" d="M631 20c-350 0-501-215-501-562 0-355 162-560 502-560 250 0 399 118 446 323l-192 14c-23-124-109-196-262-196-242 0-305 171-305 415 1 245 61 427 304 427 151 0 248-77 267-215l190 12C1039-107 883 20 631 20" id="K"/><path fill="#5f6572" d="M528 20c-247 0-343-132-343-381v-721h180v686c-4 177 45 284 224 277 194-8 279-136 279-336v-627h181c3 360-6 732 6 1082H885c-4-54-7-126-8-185h-3C809-64 714 20 528 20" id="L"/><path fill="#5f6572" d="M839-1102c70 0 148 7 206 17v167c-112-18-268-36-363 15-129 69-208 203-208 395V0H294c-10-367 32-789-52-1082h171c21 75 41 161 48 250h5c67-152 152-270 373-270" id="M"/><path fill="#5f6572" d="M736-142h380V0H134v-142h422v-1200H267v-142h469v1342" id="N"/><g id="c"><use transform="matrix(0.0077473958333333336,0,0,0.0077473958333333336,0,0)" xlink:href="#K"/><use transform="matrix(0.0077473958333333336,0,0,0.0077473958333333336,9.521549479166667,0)" xlink:href="#L"/><use transform="matrix(0.0077473958333333336,0,0,0.0077473958333333336,19.043098958333335,0)" xlink:href="#M"/><use transform="matrix(0.0077473958333333336,0,0,0.0077473958333333336,28.564648437500004,0)" xlink:href="#N"/></g><path fill="#5f6572" d="M334-464v-160h560v160H334" id="O"/><path fill="#5f6572" d="M614-836l333-513h205L717-705 1193 0H988L614-573 241 0H36l476-705-435-644h205" id="P"/><g id="d"><use transform="matrix(0.0077473958333333336,0,0,0.0077473958333333336,0,0)" xlink:href="#O"/><use transform="matrix(0.0077473958333333336,0,0,0.0077473958333333336,9.521549479166667,0)" xlink:href="#P"/></g><path fill="#5f6572" d="M622-1349c296 4 497 117 497 404 0 282-193 424-485 431H353V0H162v-1349h460zm-15 684c195-3 320-88 320-277 0-184-129-255-328-254H353v531h254" id="Q"/><path fill="#5f6572" d="M102-681c0-398 126-689 513-689 165 0 291 58 379 174s132 287 132 515c-1 318-88 554-298 657-123 61-317 58-438-3-206-104-288-341-288-654zm749 406c94-160 97-656-5-807-57-85-130-132-231-132-104 0-178 47-234 132-101 153-99 655 1 809 57 89 130 138 232 138 109 0 184-49 237-140" id="R"/><path fill="#5f6572" d="M614-1226c-167 1-283 53-283 213 0 183 186 193 334 234 230 63 463 120 463 409 0 286-219 387-518 390C309 23 131-98 79-338l185-37c34 165 149 248 351 246 184-2 324-58 324-238 0-203-207-221-372-266-210-57-422-111-422-377 0-267 201-356 470-360 279-5 430 101 480 324l-188 33c-28-141-121-215-293-213" id="S"/><path fill="#5f6572" d="M709-1193V0H519v-1193H76v-156h1076v156H709" id="T"/><g id="e"><use transform="matrix(0.0077473958333333336,0,0,0.0077473958333333336,0,0)" xlink:href="#Q"/><use transform="matrix(0.0077473958333333336,0,0,0.0077473958333333336,9.521549479166667,0)" xlink:href="#R"/><use transform="matrix(0.0077473958333333336,0,0,0.0077473958333333336,19.043098958333335,0)" xlink:href="#S"/><use transform="matrix(0.0077473958333333336,0,0,0.0077473958333333336,28.564648437500004,0)" xlink:href="#T"/></g><path fill="#5f6572" d="M875 0v-623H353V0H162v-1349h191v566h522v-566h191V0H875" id="U"/><g id="f"><use transform="matrix(0.0077473958333333336,0,0,0.0077473958333333336,0,0)" xlink:href="#O"/><use transform="matrix(0.0077473958333333336,0,0,0.0077473958333333336,9.521549479166667,0)" xlink:href="#U"/></g><path fill="#5f6572" d="M908-845H766l-40-639h224zm-449 0H318l-41-639h224" id="V"/><path fill="#5f6572" d="M650-1214c-281 0-336 244-336 533 0 295 60 546 347 546 188 0 263-142 322-282l159 65C1058-155 935 20 659 20c-401 0-546-295-546-701 0-407 135-689 536-689 264 0 391 146 466 335l-168 65c-47-129-127-244-297-244" id="W"/><path fill="#5f6572" d="M615-1102c343 0 484 203 482 560-1 347-147 562-488 562-336 0-475-219-479-562-4-349 156-560 485-560zm-8 989c240 0 301-180 301-429 0-245-55-427-290-427-236 0-299 181-299 427 0 243 61 429 288 429" id="X"/><path fill="#5f6572" d="M706-1102c241 0 344 136 343 381V0H868v-695c1-168-57-273-220-268-190 6-283 138-283 336V0H185c-3-360 6-732-6-1082h170c4 54 7 126 8 185h3c63-121 164-204 346-205" id="Y"/><path fill="#5f6572" d="M682 16c-209 0-323-80-324-285v-671H190v-142h170l58-282h120v282h432v142H538v652c2 114 60 155 182 155 106 0 209-16 297-34v137C921-4 806 16 682 16" id="Z"/><path fill="#5f6572" d="M617-1102c355 0 481 238 477 599H322c5 222 84 388 301 388 144 0 244-59 284-166l158 45C1002-72 854 20 623 20c-342 0-490-220-490-568 0-346 151-554 484-554zm291 461c-18-192-90-328-289-328-194 0-287 128-295 328h584" id="aa"/><path fill="#5f6572" d="M168 279c222 39 310-114 368-290L66-1082h192c120 299 249 590 362 896 115-301 235-597 351-896h190L705 0c-65 164-130 320-275 396-67 36-177 35-262 18V279" id="ab"/><path fill="#5f6572" d="M698-1104c312 3 392 244 392 558 0 315-82 566-392 566-169 0-277-65-331-184h-5c8 188 2 394 4 589H185V-858c0-76-1-156-6-224h175c6 52 9 120 10 178h4c58-122 150-202 330-200zm-49 991c225 0 255-203 255-433 0-225-32-419-253-419-236 0-285 192-285 441 0 237 53 411 283 411" id="ac"/><path fill="#5f6572" d="M496 0v-299h235V0H496zm0-783v-299h235v299H496" id="ad"/><g id="g"><use transform="matrix(0.0077473958333333336,0,0,0.0077473958333333336,0,0)" xlink:href="#V"/><use transform="matrix(0.0077473958333333336,0,0,0.0077473958333333336,9.521549479166667,0)" xlink:href="#W"/><use transform="matrix(0.0077473958333333336,0,0,0.0077473958333333336,19.043098958333335,0)" xlink:href="#X"/><use transform="matrix(0.0077473958333333336,0,0,0.0077473958333333336,28.564648437500004,0)" xlink:href="#Y"/><use transform="matrix(0.0077473958333333336,0,0,0.0077473958333333336,38.08619791666667,0)" xlink:href="#Z"/><use transform="matrix(0.0077473958333333336,0,0,0.0077473958333333336,47.607747395833336,0)" xlink:href="#aa"/><use transform="matrix(0.0077473958333333336,0,0,0.0077473958333333336,57.129296875,0)" xlink:href="#Y"/><use transform="matrix(0.0077473958333333336,0,0,0.0077473958333333336,66.65084635416667,0)" xlink:href="#Z"/><use transform="matrix(0.0077473958333333336,0,0,0.0077473958333333336,76.17239583333334,0)" xlink:href="#O"/><use transform="matrix(0.0077473958333333336,0,0,0.0077473958333333336,85.6939453125,0)" xlink:href="#T"/><use transform="matrix(0.0077473958333333336,0,0,0.0077473958333333336,95.21549479166667,0)" xlink:href="#ab"/><use transform="matrix(0.0077473958333333336,0,0,0.0077473958333333336,104.73704427083334,0)" xlink:href="#ac"/><use transform="matrix(0.0077473958333333336,0,0,0.0077473958333333336,114.25859375,0)" xlink:href="#aa"/><use transform="matrix(0.0077473958333333336,0,0,0.0077473958333333336,123.78014322916667,0)" xlink:href="#ad"/></g><path fill="#5f6572" d="M1000-272c3 95 12 159 101 161 21 0 41-3 59-7V-6c-44 10-86 16-139 16-141 2-191-84-197-217h-6C748-76 648 20 446 20c-207 0-318-120-318-322 0-266 194-348 454-354l236-4c12-191-40-305-222-305-140 0-220 47-232 172l-188-17c33-204 181-292 423-292 255 0 401 118 401 364v466zm-683-27c0 109 63 184 175 182 166-3 259-96 306-217 24-65 20-120 20-200-232 7-501-28-501 235" id="ae"/><path fill="#5f6572" d="M745-142h380V0H143v-142h422v-798H246v-142h499v940zM545-1292v-192h200v192H545" id="af"/><path fill="#5f6572" d="M114 20l821-1504h178L296 20H114" id="ag"/><path fill="#5f6572" d="M390 276c167 0 266-82 266-251v-965H249v-142h587V28c-4 270-165 397-431 397-107 0-208-16-288-43V242c80 18 173 34 273 34zm246-1568v-192h200v192H636" id="ah"/><path fill="#5f6572" d="M873-819c-18-114-119-146-250-146-163 0-245 50-245 151 0 151 170 148 294 185 182 54 388 94 388 320 0 240-189 325-439 329-245 4-410-69-454-268l159-31c24 133 136 168 295 165 144-2 270-31 270-171 0-164-195-160-331-202-167-52-350-87-350-299 0-218 173-315 413-313 220 2 373 77 412 260" id="ai"/><g id="h"><use transform="matrix(0.0077473958333333336,0,0,0.0077473958333333336,0,0)" xlink:href="#ae"/><use transform="matrix(0.0077473958333333336,0,0,0.0077473958333333336,9.521549479166667,0)" xlink:href="#ac"/><use transform="matrix(0.0077473958333333336,0,0,0.0077473958333333336,19.043098958333335,0)" xlink:href="#ac"/><use transform="matrix(0.0077473958333333336,0,0,0.0077473958333333336,28.564648437500004,0)" xlink:href="#N"/><use transform="matrix(0.0077473958333333336,0,0,0.0077473958333333336,38.08619791666667,0)" xlink:href="#af"/><use transform="matrix(0.0077473958333333336,0,0,0.0077473958333333336,47.607747395833336,0)" xlink:href="#K"/><use transform="matrix(0.0077473958333333336,0,0,0.0077473958333333336,57.129296875,0)" xlink:href="#ae"/><use transform="matrix(0.0077473958333333336,0,0,0.0077473958333333336,66.65084635416667,0)" xlink:href="#Z"/><use transform="matrix(0.0077473958333333336,0,0,0.0077473958333333336,76.17239583333334,0)" xlink:href="#af"/><use transform="matrix(0.0077473958333333336,0,0,0.0077473958333333336,85.6939453125,0)" xlink:href="#X"/><use transform="matrix(0.0077473958333333336,0,0,0.0077473958333333336,95.21549479166667,0)" xlink:href="#Y"/><use transform="matrix(0.0077473958333333336,0,0,0.0077473958333333336,104.73704427083334,0)" xlink:href="#ag"/><use transform="matrix(0.0077473958333333336,0,0,0.0077473958333333336,114.25859375,0)" xlink:href="#ah"/><use transform="matrix(0.0077473958333333336,0,0,0.0077473958333333336,123.78014322916667,0)" xlink:href="#ai"/><use transform="matrix(0.0077473958333333336,0,0,0.0077473958333333336,133.30169270833335,0)" xlink:href="#X"/><use transform="matrix(0.0077473958333333336,0,0,0.0077473958333333336,142.82324218750003,0)" xlink:href="#Y"/><use transform="matrix(0.0077473958333333336,0,0,0.0077473958333333336,152.3447916666667,0)" xlink:href="#V"/></g><path fill="#5f6572" d="M865-914c-3-187-2-380-2-570h180v1261c0 76 1 155 6 223H877c-8-49-9-116-10-174h-5C801-44 708 26 530 26c-135 0-234-46-297-139s-95-232-95-419c0-377 131-566 392-566 176 0 271 63 335 184zm-286-51c-222 0-255 197-255 427 0 229 31 425 253 425 237 0 286-195 286-441 0-238-52-411-284-411" id="aj"/><g id="i"><use transform="matrix(0.0077473958333333336,0,0,0.0077473958333333336,0,0)" xlink:href="#O"/><use transform="matrix(0.0077473958333333336,0,0,0.0077473958333333336,9.521549479166667,0)" xlink:href="#aj"/></g><path fill="#5f6572" d="M684-845H543l-41-639h224" id="ak"/><path fill="#5f6572" d="M677 91c1 136 41 195 171 195h213v139H796c-186-8-294-116-294-303v-351c-3-164-120-222-275-232v-137c155-10 275-69 275-231v-352c6-189 106-303 294-303h265v139H848c-126-3-171 67-171 195v346c-5 158-108 234-231 274 128 36 231 115 231 274V91" id="al"/><g id="j"><use transform="matrix(0.0077473958333333336,0,0,0.0077473958333333336,0,0)" xlink:href="#ak"/><use transform="matrix(0.0077473958333333336,0,0,0.0077473958333333336,9.521549479166667,0)" xlink:href="#al"/><use transform="matrix(0.0077473958333333336,0,0,0.0077473958333333336,19.043098958333335,0)" xlink:href="#V"/><use transform="matrix(0.0077473958333333336,0,0,0.0077473958333333336,28.564648437500004,0)" xlink:href="#L"/><use transform="matrix(0.0077473958333333336,0,0,0.0077473958333333336,38.08619791666667,0)" xlink:href="#M"/><use transform="matrix(0.0077473958333333336,0,0,0.0077473958333333336,47.607747395833336,0)" xlink:href="#N"/><use transform="matrix(0.0077473958333333336,0,0,0.0077473958333333336,57.129296875,0)" xlink:href="#ai"/><use transform="matrix(0.0077473958333333336,0,0,0.0077473958333333336,66.65084635416667,0)" xlink:href="#V"/><use transform="matrix(0.0077473958333333336,0,0,0.0077473958333333336,76.17239583333334,0)" xlink:href="#ad"/></g><path fill="#5f6572" d="M410 425v-1909h547v139H590V286h367v139H410" id="am"/><path fill="#5f6572" d="M648-963c-190 6-283 138-283 336V0H185v-1484h181c-2 197 6 404-9 587h3c62-120 159-205 339-205 242 0 351 135 350 381V0H868v-695c1-168-57-273-220-268" id="an"/><path fill="#5f6572" d="M1048-32c-2 300-135 456-433 456-222-1-358-88-400-267l184-25c22 99 100 157 222 156 184-2 248-125 248-315 0-64 3-133-2-194C807-100 706-13 524-12c-306 0-381-228-381-537 0-318 85-550 400-550 164 0 271 83 325 202h3c1-60 3-134 12-185h171c-13 339-4 702-6 1050zM585-145c210-8 284-178 284-406 0-192-52-331-177-392-33-16-69-22-104-22-223 2-259 184-259 414 0 229 31 415 256 406" id="ao"/><path fill="#5f6572" d="M496 0v-299h235V0H496" id="ap"/><path fill="#5f6572" d="M904-1102c199 0 220 177 220 381V0H956v-686c-3-114 0-215-60-264-70-33-125-4-158 71-26 56-39 140-39 252V0H531v-686c-3-114-1-215-61-264-78-41-136 24-157 84-24 69-39 159-39 259V0H105c-3-360 6-732-6-1082h149c6 50 3 123 8 175 36-100 83-195 216-195 135 0 166 79 196 196 42-105 93-196 236-196" id="aq"/><path fill="#5f6572" d="M259 363l169-662h265L382 363H259" id="ar"/><path fill="#5f6572" d="M839-1335c-182-6-269 67-259 253h491v142H580V0H400v-940H138v-142h262c-15-293 132-408 418-402 94 2 200 7 281 21v145c-75-10-177-14-260-17" id="as"/><path fill="#5f6572" d="M365-904c58-129 161-200 334-200 130 0 228 46 293 138s98 233 98 420c0 189-34 331-102 425S824 20 698 20c-170 0-275-64-336-184 0 55-3 116-9 164H179c5-68 6-147 6-223v-1261h180c-2 193 4 394-4 580h4zm283 791c221 0 256-197 256-427 0-229-34-425-254-425-236 0-285 195-285 441 0 237 53 411 283 411" id="at"/><path fill="#5f6572" d="M914 0L548-499l-132 98V0H236v-1484h180v927l475-525h211L663-617 1125 0H914" id="au"/><path fill="#5f6572" d="M270 425V286h367v-1631H270v-139h547V425H270" id="av"/><path fill="#5f6572" d="M726 122c-7 187-108 303-294 303H167V286h213c129-2 172-59 172-195v-347c5-160 106-236 230-276-125-36-230-116-230-272v-346c2-128-45-195-172-195H167v-139h265c187 7 294 114 294 303v352c4 162 120 221 275 231v137c-155 10-275 68-275 232v351" id="aw"/><g id="k"><use transform="matrix(0.0077473958333333336,0,0,0.0077473958333333336,0,0)" xlink:href="#am"/><use transform="matrix(0.0077473958333333336,0,0,0.0077473958333333336,9.521549479166667,0)" xlink:href="#V"/><use transform="matrix(0.0077473958333333336,0,0,0.0077473958333333336,19.043098958333335,0)" xlink:href="#an"/><use transform="matrix(0.0077473958333333336,0,0,0.0077473958333333336,28.564648437500004,0)" xlink:href="#Z"/><use transform="matrix(0.0077473958333333336,0,0,0.0077473958333333336,38.08619791666667,0)" xlink:href="#Z"/><use transform="matrix(0.0077473958333333336,0,0,0.0077473958333333336,47.607747395833336,0)" xlink:href="#ac"/><use transform="matrix(0.0077473958333333336,0,0,0.0077473958333333336,57.129296875,0)" xlink:href="#ad"/><use transform="matrix(0.0077473958333333336,0,0,0.0077473958333333336,66.65084635416667,0)" xlink:href="#ag"/><use transform="matrix(0.0077473958333333336,0,0,0.0077473958333333336,76.17239583333334,0)" xlink:href="#ag"/><use transform="matrix(0.0077473958333333336,0,0,0.0077473958333333336,85.6939453125,0)" xlink:href="#ao"/><use transform="matrix(0.0077473958333333336,0,0,0.0077473958333333336,95.21549479166667,0)" xlink:href="#X"/><use transform="matrix(0.0077473958333333336,0,0,0.0077473958333333336,104.73704427083334,0)" xlink:href="#X"/><use transform="matrix(0.0077473958333333336,0,0,0.0077473958333333336,114.25859375,0)" xlink:href="#ao"/><use transform="matrix(0.0077473958333333336,0,0,0.0077473958333333336,123.78014322916667,0)" xlink:href="#N"/><use transform="matrix(0.0077473958333333336,0,0,0.0077473958333333336,133.30169270833335,0)" xlink:href="#aa"/><use transform="matrix(0.0077473958333333336,0,0,0.0077473958333333336,142.82324218750003,0)" xlink:href="#ap"/><use transform="matrix(0.0077473958333333336,0,0,0.0077473958333333336,152.3447916666667,0)" xlink:href="#K"/><use transform="matrix(0.0077473958333333336,0,0,0.0077473958333333336,161.8663411458334,0)" xlink:href="#X"/><use transform="matrix(0.0077473958333333336,0,0,0.0077473958333333336,171.38789062500007,0)" xlink:href="#aq"/><use transform="matrix(0.0077473958333333336,0,0,0.0077473958333333336,180.90944010416675,0)" xlink:href="#V"/><use transform="matrix(0.0077473958333333336,0,0,0.0077473958333333336,190.43098958333343,0)" xlink:href="#ar"/><use transform="matrix(0.0077473958333333336,0,0,0.0077473958333333336,199.9525390625001,0)" xlink:href="#V"/><use transform="matrix(0.0077473958333333336,0,0,0.0077473958333333336,209.4740885416668,0)" xlink:href="#an"/><use transform="matrix(0.0077473958333333336,0,0,0.0077473958333333336,218.99563802083347,0)" xlink:href="#Z"/><use transform="matrix(0.0077473958333333336,0,0,0.0077473958333333336,228.51718750000015,0)" xlink:href="#Z"/><use transform="matrix(0.0077473958333333336,0,0,0.0077473958333333336,238.03873697916683,0)" xlink:href="#ac"/><use transform="matrix(0.0077473958333333336,0,0,0.0077473958333333336,247.5602864583335,0)" xlink:href="#ad"/><use transform="matrix(0.0077473958333333336,0,0,0.0077473958333333336,257.08183593750016,0)" xlink:href="#ag"/><use transform="matrix(0.0077473958333333336,0,0,0.0077473958333333336,266.6033854166668,0)" xlink:href="#ag"/><use transform="matrix(0.0077473958333333336,0,0,0.0077473958333333336,276.12493489583346,0)" xlink:href="#as"/><use transform="matrix(0.0077473958333333336,0,0,0.0077473958333333336,285.6464843750001,0)" xlink:href="#ae"/><use transform="matrix(0.0077473958333333336,0,0,0.0077473958333333336,295.16803385416677,0)" xlink:href="#K"/><use transform="matrix(0.0077473958333333336,0,0,0.0077473958333333336,304.6895833333334,0)" xlink:href="#aa"/><use transform="matrix(0.0077473958333333336,0,0,0.0077473958333333336,314.21113281250007,0)" xlink:href="#at"/><use transform="matrix(0.0077473958333333336,0,0,0.0077473958333333336,323.7326822916667,0)" xlink:href="#X"/><use transform="matrix(0.0077473958333333336,0,0,0.0077473958333333336,333.25423177083337,0)" xlink:href="#X"/><use transform="matrix(0.0077473958333333336,0,0,0.0077473958333333336,342.77578125,0)" xlink:href="#au"/><use transform="matrix(0.0077473958333333336,0,0,0.0077473958333333336,352.2973307291667,0)" xlink:href="#ap"/><use transform="matrix(0.0077473958333333336,0,0,0.0077473958333333336,361.8188802083333,0)" xlink:href="#K"/><use transform="matrix(0.0077473958333333336,0,0,0.0077473958333333336,371.3404296875,0)" xlink:href="#X"/><use transform="matrix(0.0077473958333333336,0,0,0.0077473958333333336,380.86197916666663,0)" xlink:href="#aq"/><use transform="matrix(0.0077473958333333336,0,0,0.0077473958333333336,390.3835286458333,0)" xlink:href="#V"/><use transform="matrix(0.0077473958333333336,0,0,0.0077473958333333336,399.90507812499993,0)" xlink:href="#av"/><use transform="matrix(0.0077473958333333336,0,0,0.0077473958333333336,409.4266276041666,0)" xlink:href="#aw"/><use transform="matrix(0.0077473958333333336,0,0,0.0077473958333333336,418.94817708333323,0)" xlink:href="#ak"/></g><path fill="#5f6572" d="M353-779c69-51 166-92 291-90 218 3 357 100 423 255 21 52 32 109 32 170 0 305-189 464-500 464-268 0-424-116-471-335l182-21c35 130 124 212 293 209 198-4 309-114 309-313 0-182-118-282-305-282-120 0-198 45-262 101H169l47-728h801v145H382" id="ax"/><path fill="#5f6572" d="M1065-1013c47 164 49 500-1 665C999-130 875 20 611 20c-377 0-484-300-487-695-2-245 41-425 141-551 77-98 191-144 352-144 261 0 386 140 448 357zM741-155c199-92 203-504 159-785-26-168-96-284-283-284-281 0-308 256-311 549-2 181 18 324 80 428 46 77 115 118 227 120 47 0 90-10 128-28" id="ay"/><path fill="#5f6572" d="M148-1120c216-7 379-89 463-229h166v1204h353V0H157v-145h439v-1021c-79 124-254 184-448 194v-148" id="az"/><path fill="#5f6572" d="M1018 0H814c-67-224-138-444-200-673C552-442 476-224 407 0H204L21-1082h178c43 310 105 601 126 933 54-225 128-425 193-638h193c63 212 134 415 185 638 22-336 90-622 136-933h176" id="aA"/><g id="l"><use transform="matrix(0.0077473958333333336,0,0,0.0077473958333333336,0,0)" xlink:href="#an"/><use transform="matrix(0.0077473958333333336,0,0,0.0077473958333333336,9.521549479166667,0)" xlink:href="#Z"/><use transform="matrix(0.0077473958333333336,0,0,0.0077473958333333336,19.043098958333335,0)" xlink:href="#Z"/><use transform="matrix(0.0077473958333333336,0,0,0.0077473958333333336,28.564648437500004,0)" xlink:href="#ac"/><use transform="matrix(0.0077473958333333336,0,0,0.0077473958333333336,38.08619791666667,0)" xlink:href="#ad"/><use transform="matrix(0.0077473958333333336,0,0,0.0077473958333333336,47.607747395833336,0)" xlink:href="#ag"/><use transform="matrix(0.0077473958333333336,0,0,0.0077473958333333336,57.129296875,0)" xlink:href="#ag"/><use transform="matrix(0.0077473958333333336,0,0,0.0077473958333333336,66.65084635416667,0)" xlink:href="#N"/><use transform="matrix(0.0077473958333333336,0,0,0.0077473958333333336,76.17239583333334,0)" xlink:href="#X"/><use transform="matrix(0.0077473958333333336,0,0,0.0077473958333333336,85.6939453125,0)" xlink:href="#K"/><use transform="matrix(0.0077473958333333336,0,0,0.0077473958333333336,95.21549479166667,0)" xlink:href="#ae"/><use transform="matrix(0.0077473958333333336,0,0,0.0077473958333333336,104.73704427083334,0)" xlink:href="#N"/><use transform="matrix(0.0077473958333333336,0,0,0.0077473958333333336,114.25859375,0)" xlink:href="#an"/><use transform="matrix(0.0077473958333333336,0,0,0.0077473958333333336,123.78014322916667,0)" xlink:href="#X"/><use transform="matrix(0.0077473958333333336,0,0,0.0077473958333333336,133.30169270833335,0)" xlink:href="#ai"/><use transform="matrix(0.0077473958333333336,0,0,0.0077473958333333336,142.82324218750003,0)" xlink:href="#Z"/><use transform="matrix(0.0077473958333333336,0,0,0.0077473958333333336,152.3447916666667,0)" xlink:href="#ad"/><use transform="matrix(0.0077473958333333336,0,0,0.0077473958333333336,161.8663411458334,0)" xlink:href="#ax"/><use transform="matrix(0.0077473958333333336,0,0,0.0077473958333333336,171.38789062500007,0)" xlink:href="#ay"/><use transform="matrix(0.0077473958333333336,0,0,0.0077473958333333336,180.90944010416675,0)" xlink:href="#ay"/><use transform="matrix(0.0077473958333333336,0,0,0.0077473958333333336,190.43098958333343,0)" xlink:href="#az"/><use transform="matrix(0.0077473958333333336,0,0,0.0077473958333333336,199.9525390625001,0)" xlink:href="#ag"/><use transform="matrix(0.0077473958333333336,0,0,0.0077473958333333336,209.4740885416668,0)" xlink:href="#K"/><use transform="matrix(0.0077473958333333336,0,0,0.0077473958333333336,218.99563802083347,0)" xlink:href="#M"/><use transform="matrix(0.0077473958333333336,0,0,0.0077473958333333336,228.51718750000015,0)" xlink:href="#ae"/><use transform="matrix(0.0077473958333333336,0,0,0.0077473958333333336,238.03873697916683,0)" xlink:href="#aA"/><use transform="matrix(0.0077473958333333336,0,0,0.0077473958333333336,247.5602864583335,0)" xlink:href="#N"/></g><path fill="#5f6572" d="M212-179c-10-28-35-45-73-45-59 0-87 40-87 99 0 60 29 101 89 101 43 0 62-24 78-52l27 14C228-24 195 4 139 4 59 4 22-46 18-125c-6-104 99-153 187-111 19 9 31 26 39 46" id="aB"/><path fill="#5f6572" d="M179-190L93 31C79 59 56 82 12 73V49c39 6 53-20 64-50L1-190h34L92-34l54-156h33" id="aC"/><g id="o"><use transform="matrix(0.06172839506172839,0,0,0.06172839506172839,0,0)" xlink:href="#aB"/><use transform="matrix(0.06172839506172839,0,0,0.06172839506172839,15.987654320987653,0)" xlink:href="#I"/><use transform="matrix(0.06172839506172839,0,0,0.06172839506172839,28.333333333333332,0)" xlink:href="#D"/><use transform="matrix(0.06172839506172839,0,0,0.06172839506172839,33.20987654320987,0)" xlink:href="#I"/><use transform="matrix(0.06172839506172839,0,0,0.06172839506172839,45.55555555555555,0)" xlink:href="#J"/><use transform="matrix(0.06172839506172839,0,0,0.06172839506172839,52.90123456790123,0)" xlink:href="#aC"/></g><path fill="#5f6572" d="M-5 220v-96h1238v96H-5" id="aD"/><g id="p"><use transform="matrix(0.0077473958333333336,0,0,0.0077473958333333336,0,0)" xlink:href="#al"/><use transform="matrix(0.0077473958333333336,0,0,0.0077473958333333336,9.521549479166667,0)" xlink:href="#K"/><use transform="matrix(0.0077473958333333336,0,0,0.0077473958333333336,19.043098958333335,0)" xlink:href="#M"/><use transform="matrix(0.0077473958333333336,0,0,0.0077473958333333336,28.564648437500004,0)" xlink:href="#ae"/><use transform="matrix(0.0077473958333333336,0,0,0.0077473958333333336,38.08619791666667,0)" xlink:href="#aA"/><use transform="matrix(0.0077473958333333336,0,0,0.0077473958333333336,47.607747395833336,0)" xlink:href="#N"/><use transform="matrix(0.0077473958333333336,0,0,0.0077473958333333336,57.129296875,0)" xlink:href="#aD"/><use transform="matrix(0.0077473958333333336,0,0,0.0077473958333333336,66.65084635416667,0)" xlink:href="#af"/><use transform="matrix(0.0077473958333333336,0,0,0.0077473958333333336,76.17239583333334,0)" xlink:href="#aj"/><use transform="matrix(0.0077473958333333336,0,0,0.0077473958333333336,85.6939453125,0)" xlink:href="#ai"/><use transform="matrix(0.0077473958333333336,0,0,0.0077473958333333336,95.21549479166667,0)" xlink:href="#ad"/></g><path fill="#5f6572" d="M611-1370c266 0 451 106 451 368 0 147-77 243-154 327-132 144-316 255-451 395-42 44-75 87-96 134h723V0H144v-117c124-264 387-411 582-603 73-72 151-147 151-271 0-161-104-231-266-231-163 0-249 90-268 238l-184-17c35-233 185-369 452-369" id="aE"/><g id="q"><use transform="matrix(0.0077473958333333336,0,0,0.0077473958333333336,0,0)" xlink:href="#az"/><use transform="matrix(0.0077473958333333336,0,0,0.0077473958333333336,9.521549479166667,0)" xlink:href="#ar"/><use transform="matrix(0.0077473958333333336,0,0,0.0077473958333333336,19.043098958333335,0)" xlink:href="#aE"/><use transform="matrix(0.0077473958333333336,0,0,0.0077473958333333336,28.564648437500004,0)" xlink:href="#aw"/></g><path fill="#5f6572" d="M27 0v-27h64v-190l-56 39v-29l58-41h29v221h61V0H27" id="aF"/><path fill="#5f6572" d="M68-38c1 34 0 65-14 84H32c9-13 17-26 17-46H33v-38h35" id="aG"/><path fill="#5f6572" d="M101-251c82-7 93 87 43 132L82-64C71-53 59-42 53-27h129V0H18c2-99 128-94 128-182 0-28-16-43-45-43s-46 15-49 41l-32-3c6-41 34-60 81-64" id="aH"/><g id="r"><use transform="matrix(0.06172839506172839,0,0,0.06172839506172839,0,0)" xlink:href="#aF"/><use transform="matrix(0.06172839506172839,0,0,0.06172839506172839,12.345679012345679,0)" xlink:href="#aG"/><use transform="matrix(0.06172839506172839,0,0,0.06172839506172839,18.51851851851852,0)" xlink:href="#aH"/></g><g id="s"><use transform="matrix(0.0077473958333333336,0,0,0.0077473958333333336,0,0)" xlink:href="#Q"/><use transform="matrix(0.0077473958333333336,0,0,0.0077473958333333336,9.521549479166667,0)" xlink:href="#R"/><use transform="matrix(0.0077473958333333336,0,0,0.0077473958333333336,19.043098958333335,0)" xlink:href="#S"/><use transform="matrix(0.0077473958333333336,0,0,0.0077473958333333336,28.564648437500004,0)" xlink:href="#T"/></g><path fill="#5f6572" d="M1121-976c0 225-142 341-344 379L1177 0H957L591-575H353V0H162v-1349h482c281 3 477 100 477 373zM633-726c181-1 296-73 296-247 0-149-101-223-304-223H353v470h280" id="aI"/><path fill="#5f6572" d="M162 0v-1349h919v156H353v422h668v154H353v461h769V0H162" id="aJ"/><path fill="#5f6572" d="M912-211c-10-84-18-177-18-274v-864h172V0H836L316-1130c7 79 16 167 16 254V0H162v-1349h222" id="aK"/><g id="t"><use transform="matrix(0.0077473958333333336,0,0,0.0077473958333333336,0,0)" xlink:href="#aI"/><use transform="matrix(0.0077473958333333336,0,0,0.0077473958333333336,9.521549479166667,0)" xlink:href="#aJ"/><use transform="matrix(0.0077473958333333336,0,0,0.0077473958333333336,19.043098958333335,0)" xlink:href="#S"/><use transform="matrix(0.0077473958333333336,0,0,0.0077473958333333336,28.564648437500004,0)" xlink:href="#Q"/><use transform="matrix(0.0077473958333333336,0,0,0.0077473958333333336,38.08619791666667,0)" xlink:href="#R"/><use transform="matrix(0.0077473958333333336,0,0,0.0077473958333333336,47.607747395833336,0)" xlink:href="#aK"/><use transform="matrix(0.0077473958333333336,0,0,0.0077473958333333336,57.129296875,0)" xlink:href="#S"/><use transform="matrix(0.0077473958333333336,0,0,0.0077473958333333336,66.65084635416667,0)" xlink:href="#aJ"/></g><use transform="matrix(0.06172839506172839,0,0,0.06172839506172839,0,0)" xlink:href="#aF" id="u"/><use transform="matrix(0.06172839506172839,0,0,0.06172839506172839,0,0)" xlink:href="#aH" id="v"/><path fill="#5f6572" d="M1069-1210C890-948 720-664 634-316c-25 105-38 210-38 316H408c9-385 153-667 302-925 57-98 120-190 185-279H158v-145h911v139" id="aL"/><g id="w"><use transform="matrix(0.0077473958333333336,0,0,0.0077473958333333336,0,0)" xlink:href="#an"/><use transform="matrix(0.0077473958333333336,0,0,0.0077473958333333336,9.521549479166667,0)" xlink:href="#Z"/><use transform="matrix(0.0077473958333333336,0,0,0.0077473958333333336,19.043098958333335,0)" xlink:href="#Z"/><use transform="matrix(0.0077473958333333336,0,0,0.0077473958333333336,28.564648437500004,0)" xlink:href="#ac"/><use transform="matrix(0.0077473958333333336,0,0,0.0077473958333333336,38.08619791666667,0)" xlink:href="#ad"/><use transform="matrix(0.0077473958333333336,0,0,0.0077473958333333336,47.607747395833336,0)" xlink:href="#ag"/><use transform="matrix(0.0077473958333333336,0,0,0.0077473958333333336,57.129296875,0)" xlink:href="#ag"/><use transform="matrix(0.0077473958333333336,0,0,0.0077473958333333336,66.65084635416667,0)" xlink:href="#N"/><use transform="matrix(0.0077473958333333336,0,0,0.0077473958333333336,76.17239583333334,0)" xlink:href="#X"/><use transform="matrix(0.0077473958333333336,0,0,0.0077473958333333336,85.6939453125,0)" xlink:href="#K"/><use transform="matrix(0.0077473958333333336,0,0,0.0077473958333333336,95.21549479166667,0)" xlink:href="#ae"/><use transform="matrix(0.0077473958333333336,0,0,0.0077473958333333336,104.73704427083334,0)" xlink:href="#N"/><use transform="matrix(0.0077473958333333336,0,0,0.0077473958333333336,114.25859375,0)" xlink:href="#an"/><use transform="matrix(0.0077473958333333336,0,0,0.0077473958333333336,123.78014322916667,0)" xlink:href="#X"/><use transform="matrix(0.0077473958333333336,0,0,0.0077473958333333336,133.30169270833335,0)" xlink:href="#ai"/><use transform="matrix(0.0077473958333333336,0,0,0.0077473958333333336,142.82324218750003,0)" xlink:href="#Z"/><use transform="matrix(0.0077473958333333336,0,0,0.0077473958333333336,152.3447916666667,0)" xlink:href="#ad"/><use transform="matrix(0.0077473958333333336,0,0,0.0077473958333333336,161.8663411458334,0)" xlink:href="#ax"/><use transform="matrix(0.0077473958333333336,0,0,0.0077473958333333336,171.38789062500007,0)" xlink:href="#ay"/><use transform="matrix(0.0077473958333333336,0,0,0.0077473958333333336,180.90944010416675,0)" xlink:href="#ay"/><use transform="matrix(0.0077473958333333336,0,0,0.0077473958333333336,190.43098958333343,0)" xlink:href="#az"/><use transform="matrix(0.0077473958333333336,0,0,0.0077473958333333336,199.9525390625001,0)" xlink:href="#ag"/><use transform="matrix(0.0077473958333333336,0,0,0.0077473958333333336,209.4740885416668,0)" xlink:href="#ai"/><use transform="matrix(0.0077473958333333336,0,0,0.0077473958333333336,218.99563802083347,0)" xlink:href="#Z"/><use transform="matrix(0.0077473958333333336,0,0,0.0077473958333333336,228.51718750000015,0)" xlink:href="#ae"/><use transform="matrix(0.0077473958333333336,0,0,0.0077473958333333336,238.03873697916683,0)" xlink:href="#Z"/><use transform="matrix(0.0077473958333333336,0,0,0.0077473958333333336,247.5602864583335,0)" xlink:href="#L"/><use transform="matrix(0.0077473958333333336,0,0,0.0077473958333333336,257.08183593750016,0)" xlink:href="#ai"/><use transform="matrix(0.0077473958333333336,0,0,0.0077473958333333336,266.6033854166668,0)" xlink:href="#ag"/><use transform="matrix(0.0077473958333333336,0,0,0.0077473958333333336,276.12493489583346,0)" xlink:href="#aL"/></g><path fill="#5f6572" d="M116-571v-205l995-418v154L253-674l858 367v153" id="aM"/><path fill="#5f6572" d="M116-154v-153l858-367-858-366v-154l995 418v205" id="aN"/><g id="x"><use transform="matrix(0.0077473958333333336,0,0,0.0077473958333333336,0,0)" xlink:href="#al"/><use transform="matrix(0.0077473958333333336,0,0,0.0077473958333333336,9.521549479166667,0)" xlink:href="#ai"/><use transform="matrix(0.0077473958333333336,0,0,0.0077473958333333336,19.043098958333335,0)" xlink:href="#Z"/><use transform="matrix(0.0077473958333333336,0,0,0.0077473958333333336,28.564648437500004,0)" xlink:href="#ae"/><use transform="matrix(0.0077473958333333336,0,0,0.0077473958333333336,38.08619791666667,0)" xlink:href="#Z"/><use transform="matrix(0.0077473958333333336,0,0,0.0077473958333333336,47.607747395833336,0)" xlink:href="#L"/><use transform="matrix(0.0077473958333333336,0,0,0.0077473958333333336,57.129296875,0)" xlink:href="#ai"/><use transform="matrix(0.0077473958333333336,0,0,0.0077473958333333336,66.65084635416667,0)" xlink:href="#ad"/><use transform="matrix(0.0077473958333333336,0,0,0.0077473958333333336,76.17239583333334,0)" xlink:href="#aM"/><use transform="matrix(0.0077473958333333336,0,0,0.0077473958333333336,85.6939453125,0)" xlink:href="#ai"/><use transform="matrix(0.0077473958333333336,0,0,0.0077473958333333336,95.21549479166667,0)" xlink:href="#Z"/><use transform="matrix(0.0077473958333333336,0,0,0.0077473958333333336,104.73704427083334,0)" xlink:href="#ae"/><use transform="matrix(0.0077473958333333336,0,0,0.0077473958333333336,114.25859375,0)" xlink:href="#Z"/><use transform="matrix(0.0077473958333333336,0,0,0.0077473958333333336,123.78014322916667,0)" xlink:href="#L"/><use transform="matrix(0.0077473958333333336,0,0,0.0077473958333333336,133.30169270833335,0)" xlink:href="#ai"/><use transform="matrix(0.0077473958333333336,0,0,0.0077473958333333336,142.82324218750003,0)" xlink:href="#aN"/><use transform="matrix(0.0077473958333333336,0,0,0.0077473958333333336,152.3447916666667,0)" xlink:href="#aw"/></g><path fill="#5f6572" d="M655-135c108 0 195-33 260-74v-336H622v-160h479v572C981-54 839 20 639 20c-388 0-526-306-526-701 0-406 129-689 529-689 261 0 392 137 461 331l-171 56c-47-131-122-231-288-231-281 0-330 245-330 533 0 179 28 314 84 407s142 139 257 139" id="aO"/><g id="y"><use transform="matrix(0.0077473958333333336,0,0,0.0077473958333333336,0,0)" xlink:href="#aO"/><use transform="matrix(0.0077473958333333336,0,0,0.0077473958333333336,9.521549479166667,0)" xlink:href="#aJ"/><use transform="matrix(0.0077473958333333336,0,0,0.0077473958333333336,19.043098958333335,0)" xlink:href="#T"/></g><path fill="#e81313" d="M233-177c-1 41-23 64-60 70L243 0h-38l-65-103H63V0H30v-248c88 3 205-21 203 71zM63-129c60-2 137 13 137-47 0-61-80-42-137-45v92" id="aP"/><path fill="#e81313" d="M100-194c63 0 86 42 84 106H49c0 40 14 67 53 68 26 1 43-12 49-29l28 8c-11 28-37 45-77 45C44 4 14-33 15-96c1-61 26-98 85-98zm52 81c6-60-76-77-97-28-3 7-6 17-6 28h103" id="aQ"/><path fill="#e81313" d="M85-194c31 0 48 13 60 33l-1-100h32l1 261h-30c-2-10 0-23-3-31C134-8 116 4 85 4 32 4 16-35 15-94c0-66 23-100 70-100zm9 24c-40 0-46 34-46 75 0 40 6 74 45 74 42 0 51-32 51-76 0-42-9-74-50-73" id="aR"/><path fill="#e81313" d="M24-231v-30h32v30H24zM24 0v-190h32V0H24" id="aS"/><path fill="#e81313" d="M135-143c-3-34-86-38-87 0 15 53 115 12 119 90S17 21 10-45l28-5c4 36 97 45 98 0-10-56-113-15-118-90-4-57 82-63 122-42 12 7 21 19 24 35" id="aT"/><g id="z"><use transform="matrix(0.06172839506172839,0,0,0.06172839506172839,0,0)" xlink:href="#aP"/><use transform="matrix(0.06172839506172839,0,0,0.06172839506172839,15.987654320987653,0)" xlink:href="#aQ"/><use transform="matrix(0.06172839506172839,0,0,0.06172839506172839,28.333333333333332,0)" xlink:href="#aR"/><use transform="matrix(0.06172839506172839,0,0,0.06172839506172839,40.67901234567901,0)" xlink:href="#aS"/><use transform="matrix(0.06172839506172839,0,0,0.06172839506172839,45.55555555555556,0)" xlink:href="#aT"/></g><path fill="#e81313" d="M27 0v-27h64v-190l-56 39v-29l58-41h29v221h61V0H27" id="aU"/><path fill="#e81313" d="M68-38c1 34 0 65-14 84H32c9-13 17-26 17-46H33v-38h35" id="aV"/><path fill="#e81313" d="M101-251c82-7 93 87 43 132L82-64C71-53 59-42 53-27h129V0H18c2-99 128-94 128-182 0-28-16-43-45-43s-46 15-49 41l-32-3c6-41 34-60 81-64" id="aW"/><g id="A"><use transform="matrix(0.06172839506172839,0,0,0.06172839506172839,0,0)" xlink:href="#aU"/><use transform="matrix(0.06172839506172839,0,0,0.06172839506172839,12.345679012345679,0)" xlink:href="#aV"/><use transform="matrix(0.06172839506172839,0,0,0.06172839506172839,18.51851851851852,0)" xlink:href="#aW"/></g><path fill="#5f6572" d="M30-248c118-7 216 8 213 122C240-48 200 0 122 0H30v-248zM63-27c89 8 146-16 146-99s-60-101-146-95v194" id="aX"/><path fill="#5f6572" d="M160-131c35 5 61 23 61 61C221 17 115-2 30 0v-248c76 3 177-17 177 60 0 33-19 50-47 57zm-97-11c50-1 110 9 110-42 0-47-63-36-110-37v79zm0 115c55-2 124 14 124-45 0-56-70-42-124-44v89" id="aY"/><g id="B"><use transform="matrix(0.06172839506172839,0,0,0.06172839506172839,0,0)" xlink:href="#aX"/><use transform="matrix(0.06172839506172839,0,0,0.06172839506172839,15.987654320987653,0)" xlink:href="#aY"/></g></defs></g></svg>